<svg width="11" height="21" viewBox="0 0 11 21" fill="none" xmlns="http://www.w3.org/2000/svg">
<path d="M10.7176 1.68725C10.8078 1.59178 10.8783 1.47947 10.9251 1.35674C10.972 1.23401 10.9941 1.10327 10.9904 0.971965C10.9867 0.840663 10.9572 0.711378 10.9035 0.591492C10.8498 0.471606 10.773 0.363467 10.6776 0.273249C10.5821 0.183031 10.4698 0.112501 10.3471 0.0656852C10.2243 0.0188697 10.0936 -0.00331434 9.96229 0.000400002C9.83099 0.00411435 9.7017 0.0336542 9.58182 0.0873329C9.46193 0.141012 9.3538 0.217778 9.26358 0.313249L0.763577 9.31325C0.588041 9.49892 0.490234 9.74474 0.490234 10.0002C0.490234 10.2558 0.588041 10.5016 0.763577 10.6872L9.26358 19.6882C9.3532 19.7858 9.46131 19.8646 9.58164 19.92C9.70197 19.9754 9.83211 20.0064 9.9645 20.0111C10.0969 20.0158 10.2289 19.9942 10.3529 19.9474C10.4768 19.9007 10.5903 19.8298 10.6866 19.7388C10.7829 19.6479 10.8602 19.5387 10.9139 19.4176C10.9677 19.2965 10.9969 19.166 10.9998 19.0335C11.0027 18.9011 10.9792 18.7694 10.9308 18.6461C10.8823 18.5228 10.8098 18.4103 10.7176 18.3153L2.86558 10.0002L10.7176 1.68725Z" fill="white"/>
</svg>
