<svg width="32" height="33" viewBox="0 0 32 33" fill="none" xmlns="http://www.w3.org/2000/svg">
<path d="M4 9.1875C4 8.46263 4.58763 7.875 5.3125 7.875H26.6875C27.4124 7.875 28 8.46263 28 9.1875C28 9.91237 27.4124 10.5 26.6875 10.5H5.3125C4.58763 10.5 4 9.91237 4 9.1875Z" fill="#111111"/>
<path d="M4 17.0625C4 16.3376 4.58763 15.75 5.3125 15.75H26.6875C27.4124 15.75 28 16.3376 28 17.0625C28 17.7874 27.4124 18.375 26.6875 18.375H5.3125C4.58763 18.375 4 17.7874 4 17.0625Z" fill="#111111"/>
<path d="M4 24.9375C4 24.2126 4.58763 23.625 5.3125 23.625H26.6875C27.4124 23.625 28 24.2126 28 24.9375C28 25.6624 27.4124 26.25 26.6875 26.25H5.3125C4.58763 26.25 4 25.6624 4 24.9375Z" fill="#111111"/>
</svg>
