<svg width="32" height="32" viewBox="0 0 32 32" fill="none" xmlns="http://www.w3.org/2000/svg">
<path fill-rule="evenodd" clip-rule="evenodd" d="M6.70011 5.28597C6.30576 4.89931 5.67263 4.90554 5.28597 5.29989C4.89931 5.69424 4.90554 6.32737 5.29989 6.71404L14.6689 15.9003L5.30196 25.0845C4.90761 25.4712 4.90138 26.1043 5.28804 26.4987C5.6747 26.893 6.30783 26.8993 6.70218 26.5126L16.0972 17.3008L25.4916 26.512C25.886 26.8987 26.5191 26.8924 26.9058 26.4981C27.2924 26.1037 27.2862 25.4706 26.8918 25.0839L17.5255 15.9003L26.8939 6.71462C27.2883 6.32796 27.2945 5.69483 26.9078 5.30048C26.5212 4.90613 25.888 4.89989 25.4937 5.28655L16.0972 14.4998L6.70011 5.28597Z" fill="white"/>
</svg>
