<svg width="20" height="20" viewBox="0 0 20 20" fill="none" xmlns="http://www.w3.org/2000/svg">
<circle cx="10" cy="10" r="10" fill="white"/>
<path d="M14.5 6.90945C14.5 6.16074 13.8394 5.50012 13.0907 5.50012H7.40932C6.66062 5.50012 6 6.16074 6 6.90945V12.5908C6 13.3395 6.66062 14.0001 7.40932 14.0001H10.272V10.7851H9.21503V9.37577H10.272V8.80323C10.272 7.83432 10.9767 6.99753 11.8575 6.99753H13.0026V8.40685H11.8575C11.7254 8.40685 11.5933 8.53898 11.5933 8.80323V9.37577H13.0026V10.7851H11.5933V14.0001H13.0907C13.8394 14.0001 14.5 13.3395 14.5 12.5908V6.90945Z" fill="#2B7AF1"/>
</svg>
