<svg width="20" height="20" viewBox="0 0 20 20" fill="none" xmlns="http://www.w3.org/2000/svg">
<circle cx="10" cy="10" r="10" fill="white"/>
<path d="M13.2904 6.00012H7.20961C6.52308 6.00012 6 6.5232 6 7.20974V13.2905C6 13.977 6.52308 14.5001 7.20961 14.5001H13.2904C13.9769 14.5001 14.5 13.977 14.5 13.2905V7.20974C14.5 6.5232 13.9769 6.00012 13.2904 6.00012ZM10.25 12.8001C11.6558 12.8001 12.8 11.6886 12.8 10.3482C12.8 10.1194 12.7673 9.85781 12.7019 9.66166H13.4212V13.127C13.4212 13.2905 13.2904 13.454 13.0942 13.454H7.40577C7.24231 13.454 7.07885 13.3232 7.07885 13.127V9.62897H7.83077C7.76539 9.85781 7.73269 10.0867 7.73269 10.3155C7.7 11.6886 8.84423 12.8001 10.25 12.8001ZM10.25 11.8194C9.33462 11.8194 8.61538 11.1001 8.61538 10.2174C8.61538 9.33474 9.33462 8.61551 10.25 8.61551C11.1654 8.61551 11.8846 9.33474 11.8846 10.2174C11.8846 11.1328 11.1654 11.8194 10.25 11.8194ZM13.3885 8.32128C13.3885 8.51743 13.225 8.68089 13.0288 8.68089H12.1135C11.9173 8.68089 11.7538 8.51743 11.7538 8.32128V7.43858C11.7538 7.24243 11.9173 7.07897 12.1135 7.07897H13.0288C13.225 7.07897 13.3885 7.24243 13.3885 7.43858V8.32128Z" fill="#2B7AF1"/>
</svg>
