<svg width="12" height="12" viewBox="0 0 12 12" fill="none" xmlns="http://www.w3.org/2000/svg">
<path fill-rule="evenodd" clip-rule="evenodd" d="M1.70711 0.292893C1.31658 -0.0976312 0.683417 -0.097631 0.292893 0.292894C-0.0976312 0.683418 -0.097631 1.31658 0.292894 1.70711L4.28062 5.69483L0.293383 9.68207C-0.0971413 10.0726 -0.0971413 10.7058 0.293383 11.0963C0.683907 11.4868 1.31707 11.4868 1.7076 11.0963L5.69484 7.10905L9.68208 11.0963C10.0726 11.4868 10.7058 11.4868 11.0963 11.0963C11.4868 10.7058 11.4868 10.0726 11.0963 9.68207L7.10905 5.69483L11.0968 1.70711C11.4873 1.31658 11.4873 0.683418 11.0968 0.292894C10.7063 -0.097631 10.0731 -0.0976312 9.68257 0.292893L5.69484 4.28062L1.70711 0.292893Z" fill="#111111" fill-opacity="0.5"/>
</svg>
