<svg width="20" height="20" viewBox="0 0 20 20" fill="none" xmlns="http://www.w3.org/2000/svg">
<circle cx="10" cy="10" r="10" fill="white"/>
<path d="M4.67535 10.1872L6.9744 11.0444L7.87063 13.928C7.9096 14.1228 8.1434 14.1618 8.29927 14.0449L9.58517 12.9928C9.70207 12.8759 9.89691 12.8759 10.0528 12.9928L12.3518 14.6683C12.5077 14.7852 12.7415 14.7073 12.7804 14.5125L14.495 6.32945C14.534 6.13462 14.3391 5.93978 14.1443 6.01772L4.67535 9.6806C4.44155 9.75853 4.44155 10.1092 4.67535 10.1872ZM7.75374 10.6158L12.2739 7.84915C12.3518 7.81019 12.4297 7.92709 12.3518 7.96606L8.64997 11.4341C8.53307 11.551 8.41616 11.7069 8.41616 11.9017L8.29927 12.8369C8.29927 12.9538 8.10443 12.9928 8.06547 12.8369L7.59786 11.1224C7.48096 10.9275 7.5589 10.6937 7.75374 10.6158Z" fill="#2B7AF1"/>
</svg>
