<svg width="20" height="20" viewBox="0 0 20 20" fill="none" xmlns="http://www.w3.org/2000/svg">
<circle cx="10" cy="10" r="10" fill="white"/>
<path d="M14.903 12.5575C14.903 12.516 14.8615 12.516 14.8615 12.4745C14.6954 12.1424 14.3218 11.7273 13.8237 11.2707C13.5746 11.0631 13.4501 10.897 13.3671 10.814C13.2425 10.648 13.2426 10.5234 13.2841 10.3574C13.3256 10.2329 13.4916 10.0253 13.7822 9.6517C13.9482 9.44414 14.0313 9.31961 14.1558 9.19508C14.7785 8.36485 15.069 7.8252 14.986 7.57613L14.9445 7.53462C14.903 7.49311 14.8615 7.4516 14.7785 7.4516C14.6954 7.41009 14.5709 7.41009 14.4464 7.4516H12.8689C12.8274 7.4516 12.8274 7.4516 12.7444 7.4516C12.7029 7.4516 12.6614 7.4516 12.6614 7.4516H12.6199H12.5784L12.5368 7.49311C12.4953 7.53462 12.4953 7.53462 12.4953 7.57613C12.3293 8.03276 12.1217 8.40636 11.9142 8.82147C11.7896 9.02903 11.6651 9.23659 11.5406 9.40264C11.416 9.56868 11.333 9.69322 11.25 9.77624C11.167 9.85926 11.0839 9.90077 11.0424 9.9838C11.0009 10.0253 10.9179 10.0668 10.9179 10.0253C10.8764 10.0253 10.8349 10.0253 10.8349 9.9838C10.7934 9.94228 10.7519 9.90077 10.7103 9.85926C10.6688 9.81775 10.6688 9.73473 10.6273 9.6517C10.6273 9.56868 10.6273 9.48566 10.6273 9.44414C10.6273 9.40263 10.6273 9.2781 10.6273 9.19508C10.6273 9.07055 10.6273 8.98752 10.6273 8.94601C10.6273 8.82147 10.6273 8.65543 10.6273 8.48939C10.6273 8.32334 10.6273 8.1988 10.6273 8.11578C10.6273 8.03276 10.6273 7.90822 10.6273 7.8252C10.6273 7.70067 10.6273 7.61764 10.6273 7.57613C10.6273 7.53462 10.5858 7.4516 10.5858 7.41009C10.5443 7.36857 10.5028 7.32706 10.4613 7.28555C10.4198 7.24404 10.3367 7.24404 10.2952 7.20253C10.0877 7.16102 9.83861 7.11951 9.54803 7.11951C8.88385 7.11951 8.42722 7.16102 8.26117 7.24404C8.17815 7.28555 8.09513 7.32706 8.05362 7.41009C7.97059 7.49311 7.97059 7.53462 8.0121 7.53462C8.21966 7.57613 8.38571 7.65915 8.46873 7.78369L8.51025 7.86671C8.55176 7.90823 8.55175 7.99125 8.59326 8.11578C8.63477 8.24031 8.63477 8.36485 8.63477 8.53089C8.63477 8.77996 8.63477 9.02903 8.63477 9.19508C8.63477 9.40264 8.59326 9.52717 8.59326 9.6517C8.59326 9.77624 8.55176 9.85926 8.51025 9.90077C8.46873 9.9838 8.46873 10.0253 8.42722 10.0253C8.42722 10.0253 8.42722 10.0668 8.3857 10.0668C8.34419 10.0668 8.30268 10.1083 8.21966 10.1083C8.17815 10.1083 8.09513 10.0668 8.05362 10.0253C7.97059 9.9838 7.88757 9.90077 7.84606 9.81775C7.76304 9.73473 7.68001 9.61019 7.59699 9.44414C7.51397 9.2781 7.38943 9.11206 7.3064 8.86299L7.22339 8.69694C7.18188 8.61392 7.09885 8.44787 7.01583 8.24032C6.93281 8.03276 6.84978 7.86671 6.76676 7.65916C6.72525 7.57613 6.68374 7.53462 6.64223 7.49311H6.60072C6.60072 7.49311 6.5592 7.4516 6.51769 7.4516C6.47618 7.4516 6.43467 7.41009 6.39316 7.41009H4.89874C4.7327 7.41009 4.64968 7.4516 4.60816 7.49311L4.56665 7.53462C4.56665 7.53462 4.56665 7.57613 4.56665 7.61764C4.56665 7.65915 4.56665 7.70066 4.60816 7.78369C4.81572 8.28182 5.06479 8.77996 5.31386 9.2781C5.56293 9.73473 5.812 10.1498 5.97804 10.4404C6.1856 10.731 6.35164 11.0216 6.5592 11.2707C6.76676 11.5197 6.89129 11.6858 6.9328 11.7688C7.01583 11.8518 7.05733 11.8933 7.09885 11.9348L7.22339 12.0594C7.30641 12.1424 7.43094 12.2669 7.59699 12.3915C7.76303 12.516 7.97059 12.6405 8.17815 12.7651C8.3857 12.8896 8.63478 12.9726 8.88385 13.0556C9.17443 13.1387 9.42349 13.1802 9.67256 13.1387H10.2952C10.4198 13.1387 10.5028 13.0972 10.5858 13.0141L10.6273 12.9726C10.6273 12.9311 10.6688 12.9311 10.6688 12.8896C10.6688 12.8481 10.6688 12.8066 10.6688 12.7236C10.6688 12.5575 10.6688 12.433 10.7103 12.3084C10.7519 12.1839 10.7519 12.1009 10.7934 12.0179C10.8349 11.9348 10.8764 11.8933 10.9179 11.8518C10.9594 11.8103 11.0009 11.7688 11.0009 11.7688H11.0424C11.1255 11.7273 11.25 11.7688 11.333 11.8518C11.4576 11.9348 11.5821 12.0594 11.6651 12.1839C11.7481 12.3084 11.8727 12.433 12.0387 12.599C12.2048 12.7651 12.3293 12.8896 12.4123 12.9311L12.5368 13.0141C12.6199 13.0556 12.7029 13.0972 12.8274 13.1387C12.952 13.1802 13.035 13.1802 13.118 13.1802L14.5294 13.1387C14.6539 13.1387 14.7785 13.0972 14.8615 13.0556C14.9445 13.0141 14.986 12.9726 14.986 12.8896C14.986 12.8481 14.986 12.7651 14.986 12.7236C14.903 12.6405 14.903 12.599 14.903 12.5575Z" fill="#2B7AF1"/>
</svg>
