<svg width="200" height="197" viewBox="0 0 200 197" fill="none" xmlns="http://www.w3.org/2000/svg">
<path opacity="0.8" fill-rule="evenodd" clip-rule="evenodd" d="M200 30.7679C170.044 47.8613 155.067 67.9457 155.067 91.0217C167.835 92.731 178.393 98.7848 186.741 109.183C195.089 119.582 199.263 131.618 199.263 145.293C199.263 159.822 195.212 172.072 187.109 182.043C179.007 192.015 168.817 197 156.54 197C142.79 197 130.882 190.519 120.815 177.556C110.748 164.594 105.714 148.854 105.714 130.336C105.714 74.7828 132.477 31.3378 186.004 0L200 30.7679ZM94.2857 30.7679C64.0847 47.8613 48.9844 67.9457 48.9844 91.0217C61.9978 92.731 72.6785 98.7848 81.0268 109.183C89.375 119.582 93.5491 131.618 93.5491 145.293C93.5491 159.822 89.4364 172.072 81.2109 182.043C72.9855 192.015 62.7344 197 50.4576 197C36.7075 197 24.8605 190.519 14.9163 177.556C4.97205 164.594 0 148.854 0 130.336C0 74.7828 26.6404 31.3378 79.9219 0L94.2857 30.7679Z" fill="url(#paint0_linear_1_2029)"/>
<defs>
<linearGradient id="paint0_linear_1_2029" x1="-1.49943e-06" y1="98.5" x2="200.037" y2="97.6804" gradientUnits="userSpaceOnUse">
<stop stop-color="#FF7A00"/>
<stop offset="1" stop-color="#FFB039"/>
</linearGradient>
</defs>
</svg>
